<?xml version="1.0" encoding="UTF-8"?>
<svg xmlns="http://www.w3.org/2000/svg" xmlns:xlink="http://www.w3.org/1999/xlink" width="512" height="512" viewBox="0 0 60 60" version="1.1"><!-- Generator: Sketch 51.3 (57544) - http://www.bohemiancoding.com/sketch --><title>007 - Car Insurance</title><desc>Created with Sketch.</desc><defs><linearGradient x1="14.4477273%" y1="9.285%" x2="77.8409091%" y2="148.75%" id="linearGradient-1"><stop stop-color="#D3DFF2" offset="0%"/><stop stop-color="#D3DFF2" offset="17.2%"/><stop stop-color="#D3DFF2" offset="20%"/><stop stop-color="#DAE2F2" offset="20%"/><stop stop-color="#EBEAF2" offset="20.1%"/><stop stop-color="#F6EFF2" offset="20.1%"/><stop stop-color="#FDF2F2" offset="20.2%"/><stop stop-color="#FFF3F2" offset="20.5%"/><stop stop-color="#FFF3F2" offset="25.2%"/><stop stop-color="#FFF3F2" offset="26%"/><stop stop-color="#D3DFF2" offset="26%"/><stop stop-color="#D3DFF2" offset="39.7%"/><stop stop-color="#D3DFF2" offset="42%"/><stop stop-color="#DAE2F2" offset="42%"/><stop stop-color="#EBEAF2" offset="42.1%"/><stop stop-color="#F6EFF2" offset="42.1%"/><stop stop-color="#FDF2F2" offset="42.2%"/><stop stop-color="#FFF3F2" offset="42.5%"/><stop stop-color="#FFF3F2" offset="48.9%"/><stop stop-color="#FFF3F2" offset="50%"/><stop stop-color="#F8F0F2" offset="50%"/><stop stop-color="#E7E8F2" offset="50%"/><stop stop-color="#DCE3F2" offset="50%"/><stop stop-color="#D5E0F2" offset="50%"/><stop stop-color="#D3DFF2" offset="50.1%"/><stop stop-color="#D3DFF2" offset="70.6%"/><stop stop-color="#D3DFF2" offset="74%"/><stop stop-color="#FFF3F2" offset="74.1%"/><stop stop-color="#FFF3F2" offset="83.5%"/><stop stop-color="#FFF3F2" offset="85%"/><stop stop-color="#D3DFF2" offset="85.1%"/></linearGradient></defs><g id="Page-1" stroke="none" stroke-width="1" fill="none" fill-rule="evenodd"><g id="007---Car-Insurance" fill-rule="nonzero"><path d="M49,32 L5,32 L11.1,14.67 C11.6637681,13.0709269 13.1744564,12.001023 14.87,12 L34,12 L49,32 Z" id="Shape" fill="url(#linearGradient-1)"/><path d="M49,33 L5,33 C4.67566413,32.9999094 4.371516,32.8425262 4.18411041,32.5778134 C3.99670482,32.3131005 3.94932047,31.9739393 4.057,31.668 L10.157,14.338 C10.8616024,12.3387884 12.750257,11.0011416 14.87,11 L34,11 C34.3147573,11 34.6111456,11.1481942 34.8,11.4 L49.8,31.4 C50.0272632,31.7030176 50.0638192,32.1084296 49.8944272,32.4472136 C49.7250352,32.7859976 49.3787721,33 49,33 Z M6.412,31 L47,31 L33.5,13 L14.87,13 C13.5991748,13.0006046 12.4666083,13.8018543 12.043,15 L6.412,31 Z" id="Shape" fill="#3B97D3"/><path d="M31,20 L23,20 C22.4477153,20 22,19.5522847 22,19 L22,17 C22,16.4477153 22.4477153,16 23,16 L31,16" id="Shape" fill="#7FACFA"/><path d="M4,50 L14,50 L14,57 C14,58.1045695 13.1045695,59 12,59 L6,59 C4.8954305,59 4,58.1045695 4,57 L4,50 Z" id="Shape" fill="#E8EDFC"/><path d="M50,50 L50,57 C49.9967052,58.1032019 49.1032019,58.9967052 48,59 L42,59 C40.8967981,58.9967052 40.0032948,58.1032019 40,57 L40,50 L50,50 Z" id="Shape" fill="#CAD9FC"/><path d="M47,50 L47,57 C46.9967052,58.1032019 46.1032019,58.9967052 45,59 L42,59 C40.8967981,58.9967052 40.0032948,58.1032019 40,57 L40,50 L47,50 Z" id="Shape" fill="#E8EDFC"/><path d="M53,36 L53,51 C53,51.5522847 52.5522847,52 52,52 L2,52 C1.44771525,52 1,51.5522847 1,51 L1,36 C1,33.790861 2.790861,32 5,32 L39.13,32 L50.47,32.29 C51.9992857,32.884625 53.0048489,34.3591861 53,36 Z" id="Shape" fill="#CAD9FC"/><path d="M50,36 L50,51 C50,51.5522847 49.5522847,52 49,52 L2,52 C1.44771525,52 1,51.5522847 1,51 L1,36 C1,33.790861 2.790861,32 5,32 L36.13,32 L47.47,32.29 C48.9992857,32.884625 50.0048489,34.3591861 50,36 Z" id="Shape" fill="#E8EDFC"/><path d="M7,36 L11,36 C13.209139,36 15,37.790861 15,40 C15,41.1045695 14.1045695,42 13,42 L7,42 C5.8954305,42 5,41.1045695 5,40 L5,38 C5,36.8954305 5.8954305,36 7,36 Z" id="Shape" fill="#E8EDFC"/><path d="M43,36 L47,36 C48.1045695,36 49,36.8954305 49,38 L49,40 C49,41.1045695 48.1045695,42 47,42 L41,42 C39.8954305,42 39,41.1045695 39,40 C39,37.790861 40.790861,36 43,36 Z" id="Shape" fill="#E8EDFC"/><path d="M7,48 L9,48 C9.55228475,48 10,48.4477153 10,49 L10,52 L6,52 L6,49 C6,48.4477153 6.44771525,48 7,48 Z" id="Shape" fill="#E8EDFC"/><path d="M45,48 L47,48 C47.5522847,48 48,48.4477153 48,49 L48,52 L44,52 L44,49 C44,48.4477153 44.4477153,48 45,48 Z" id="Shape" fill="#E8EDFC"/><rect id="Rectangle-path" fill="#FFFFFF" x="19" y="42" width="16" height="6" rx="1"/><path d="M59,7.33 L59,21.46 C58.9949804,24.4268418 57.5525697,27.2073028 55.13,28.92 L45.29,35.93 C45.115307,36.0500632 44.884693,36.0500632 44.71,35.93 L43.5,35.07 L34.87,28.92 C32.4474303,27.2073028 31.0050196,24.4268418 31,21.46 L31,7.33 C31.0005992,7.1309412 31.118079,6.95080551 31.3,6.87 L43.5,1.6 L44.8,1.04 C44.9286443,0.989991901 45.0713557,0.989991901 45.2,1.04 L58.7,6.87 C58.881921,6.95080551 58.9994008,7.1309412 59,7.33 Z" id="Shape" fill="#E8EDFC"/><path d="M56,7.33 L56,21.46 C55.9949804,24.4268418 54.5525697,27.2073028 52.13,28.92 L43.5,35.07 L34.87,28.92 C32.4474303,27.2073028 31.0050196,24.4268418 31,21.46 L31,7.33 C31.0005992,7.1309412 31.118079,6.95080551 31.3,6.87 L43.5,1.6 L55.7,6.87 C55.881921,6.95080551 55.9994008,7.1309412 56,7.33 Z" id="Shape" fill="#FFFFFF"/><path d="M37.188,25.664 C35.8239601,24.6992838 35.0092071,23.1356877 35,21.465 L35,9.633 L45,5.313 L55,9.633 L55,21.465 C54.991115,23.1360413 54.1763259,24.7000788 52.812,25.665 L45,31.225 L37.188,25.664 Z" id="Shape" fill="#955BA5"/><path d="M37.188,25.664 C35.8239601,24.6992838 35.0092071,23.1356877 35,21.465 L35,9.633 L45,5.313 L55,9.633 L55,21.465 C54.991115,23.1360413 54.1763259,24.7000788 52.812,25.665 L45,31.225 L37.188,25.664 Z" id="Shape" fill="#A4C2F7"/><path d="M2,52 L4,52 L4,57 C4,58.1045695 4.8954305,59 6,59 L9,59 C7.8954305,59 7,58.1045695 7,57 L7,52 L5,52 C4.44771525,52 4,51.5522847 4,51 L4,36 C4,34.134 6.282,32.581 8.01,32.138 C7.98767474,31.9798327 8.00379656,31.8186145 8.057,31.668 L14.157,14.338 C14.8616024,12.3387884 16.750257,11.0011416 18.87,11 L15.87,11 C13.7498899,11.0007177 11.8607245,12.3384424 11.156,14.338 L5.056,31.668 C5.00279656,31.8186145 4.98667474,31.9798327 5.009,32.138 C3.282,32.581 1,34.134 1,36 L1,51 C1,51.5522847 1.44771525,52 2,52 Z" id="Shape" fill="#FFFFFF"/><path d="M45,37 C44.6290936,37.0002033 44.2673355,36.8848601 43.965,36.67 L34.289,29.782 C31.6080237,27.8780755 30.0108094,24.7972284 30,21.509 L30,7.048 C29.999409,6.64983898 30.2350788,6.28926415 30.6,6.13 L44.6,0.082 C44.8527492,-0.0269993194 45.1392508,-0.0269993194 45.392,0.082 L59.392,6.13 C59.7569212,6.28926415 59.992591,6.64983898 59.992,7.048 L59.992,21.509 C59.9811906,24.7972284 58.3839763,27.8780755 55.703,29.782 L46.027,36.669 C45.7270104,36.8826383 45.3682826,36.9982555 45,37 Z M32,7.705 L32,21.505 C32.009902,24.1465378 33.2943467,26.6208348 35.449,28.149 L45,34.952 L54.551,28.152 C56.7053669,26.6240398 57.9897757,24.1501843 58,21.509 L58,7.705 L45,2.089 L32,7.705 Z" id="Shape" fill="#428DFF"/><path d="M45,32.27 C44.792029,32.26982 44.5892884,32.2048032 44.42,32.084 L36.608,26.523 C34.9807205,25.3702451 34.0095833,23.5031892 34,21.509 L34,9.677 C33.999409,9.27883898 34.2350788,8.91826415 34.6,8.759 L44.6,4.439 C44.8527492,4.33000068 45.1392508,4.33000068 45.392,4.439 L55.392,8.759 C55.7569212,8.91826415 55.992591,9.27883898 55.992,9.677 L55.992,21.509 C55.9825824,23.5032302 55.0114082,25.3703573 53.384,26.523 L45.58,32.084 C45.4107116,32.2048032 45.207971,32.26982 45,32.27 Z M37.769,24.894 L45,30.042 L52.231,24.9 C53.3337961,24.1217704 53.9926973,22.8587211 54,21.509 L54,10.334 L45,6.447 L36,10.334 L36,21.509 C36.0087381,22.8567225 36.6675346,24.1173365 37.769,24.894 Z" id="Shape" fill="#428DFF"/><path d="M43,24 C42.7835593,24.0004356 42.5728912,23.9302129 42.4,23.8 L38.4,20.8 C37.9581722,20.4686292 37.8686292,19.8418278 38.2,19.4 C38.5313708,18.9581722 39.1581722,18.8686292 39.6,19.2 L42.824,21.619 L50.224,12.375 C50.569178,11.9436656 51.1986656,11.8738221 51.63,12.219 C52.0613344,12.564178 52.1311779,13.1936656 51.786,13.625 L43.786,23.625 C43.5950454,23.8635113 43.3055301,24.0016388 43,24 Z" id="Shape" fill="#428DFF"/><path d="M52,53 L2,53 C0.8954305,53 1.3527075e-16,52.1045695 0,51 L0,36 C0.00330611633,33.2399468 2.23994685,31.0033061 5,31 L39.13,31 C39.6822847,31 40.13,31.4477153 40.13,32 C40.13,32.5522847 39.6822847,33 39.13,33 L5,33 C3.34314575,33 2,34.3431458 2,36 L2,51 L52,51 L52,36 C52.00734,34.7706734 51.2538101,33.6648593 50.107,33.222 C49.5922706,33.0217968 49.3372968,32.4422294 49.5375,31.9275 C49.7377032,31.4127706 50.3172706,31.1577968 50.832,31.358 C52.7499123,32.0968121 54.0110549,33.9447363 54,36 L54,51 C54,52.1045695 53.1045695,53 52,53 Z" id="Shape" fill="#428DFF"/><path d="M12,60 L6,60 C4.34314575,60 3,58.6568542 3,57 L3,52 C3,51.4477153 3.44771525,51 4,51 L14,51 C14.5522847,51 15,51.4477153 15,52 L15,57 C15,58.6568542 13.6568542,60 12,60 Z M5,53 L5,57 C5,57.5522847 5.44771525,58 6,58 L12,58 C12.5522847,58 13,57.5522847 13,57 L13,53 L5,53 Z" id="Shape" fill="#428DFF"/><path d="M48,60 L42,60 C40.3431458,60 39,58.6568542 39,57 L39,52 C39,51.4477153 39.4477153,51 40,51 L50,51 C50.5522847,51 51,51.4477153 51,52 L51,57 C51,58.6568542 49.6568542,60 48,60 Z M41,53 L41,57 C41,57.5522847 41.4477153,58 42,58 L48,58 C48.5522847,58 49,57.5522847 49,57 L49,53 L41,53 Z" id="Shape" fill="#428DFF"/><polygon id="Shape" fill="#FFFFFF" points="4.057 31.668 8.373 19.405 10.157 14.338 12.043 15.002 10.26 20.069 5.943 32.332"/><path d="M6.66,27.284 C6.13920402,27.1007987 5.56847574,27.3743006 5.385,27.895 L4.057,31.668 L5.943,32.332 L7.271,28.559 C7.45420131,28.038204 7.18069936,27.4674757 6.66,27.284 Z" id="Shape" fill="#428DFF"/><path d="M12.043,15 L10.157,14.336 L8.041,20.349 C7.85764148,20.8700807 8.13141936,21.4411414 8.65250001,21.6245 C9.17358066,21.8078585 9.74464145,21.5340806 9.928,21.013 L12.043,15 Z" id="Shape" fill="#428DFF"/><path d="M6.713,24.122 C6.62882634,24.3730183 6.64239556,24.6465452 6.751,24.888 L6.851,25.051 C6.89116453,25.1052141 6.93822809,25.1539585 6.991,25.196 C7.03500237,25.2418562 7.08555017,25.2809465 7.141,25.312 C7.19973139,25.3443049 7.26053008,25.3726999 7.323,25.397 C7.57393524,25.4817734 7.84768712,25.468193 8.089,25.359 C8.20604895,25.2989695 8.31058136,25.2171763 8.397,25.118 C8.66385232,24.8157793 8.72808991,24.3849175 8.561,24.018 C8.50026661,23.9011272 8.4181855,23.7966604 8.319,23.71 C8.22243558,23.6223196 8.10965085,23.554377 7.987,23.51 C7.73704938,23.4186287 7.46080751,23.4319561 7.22081375,23.5469649 C6.98082,23.6619736 6.79737157,23.8689371 6.712,24.121 L6.713,24.122 Z" id="Shape" fill="#428DFF"/><path d="M39.13,33 L5,33 C4.44771525,33 4,32.5522847 4,32 C4,31.4477153 4.44771525,31 5,31 L39.13,31 C39.6822847,31 40.13,31.4477153 40.13,32 C40.13,32.5522847 39.6822847,33 39.13,33 Z" id="Shape" fill="#428DFF"/><path d="M11.1,15.67 C10.7757367,15.6701197 10.4715453,15.5130039 10.2839557,15.2485104 C10.096366,14.9840169 10.0486688,14.6449848 10.156,14.339 C10.8603868,12.3390479 12.7496301,11.0008672 14.87,11 L31,11 C31.5522847,11 32,11.4477153 32,12 C32,12.5522847 31.5522847,13 31,13 L14.87,13 C13.5991748,13.0006046 12.4666083,13.8018543 12.043,15 C11.9028426,15.4009277 11.5247199,15.6695833 11.1,15.67 Z" id="Shape" fill="#428DFF"/><path d="M10.648,29 C10.3236641,28.9999094 10.019516,28.8425262 9.83211041,28.5778134 C9.64470482,28.3131005 9.59732047,27.9739393 9.705,27.668 L13.459,17 C13.884726,15.802142 15.017739,15.0014261 16.289,15 L18,15 C18.5522847,15 19,15.4477153 19,16 C19,16.5522847 18.5522847,17 18,17 L16.289,17 C15.8648006,17.0001185 15.4868342,17.2678614 15.346,17.668 L11.592,28.332 C11.451044,28.7324849 11.0725665,29.0003059 10.648,29 Z" id="Shape" fill="#428DFF"/><path d="M27,17 C26.4477153,17 26,16.5522847 26,16 L26,12 C26,11.4477153 26.4477153,11 27,11 C27.5522847,11 28,11.4477153 28,12 L28,16 C28,16.5522847 27.5522847,17 27,17 Z" id="Shape" fill="#428DFF"/><path d="M31,21 L23,21 C21.8954305,21 21,20.1045695 21,19 L21,17 C21,15.8954305 21.8954305,15 23,15 L31,15 C31.5522847,15 32,15.4477153 32,16 C32,16.5522847 31.5522847,17 31,17 L23,17 L23,19 L31,19 C31.5522847,19 32,19.4477153 32,20 C32,20.5522847 31.5522847,21 31,21 Z" id="Shape" fill="#428DFF"/><path d="M13,43 L7,43 C5.34314575,43 4,41.6568542 4,40 L4,38 C4,36.3431458 5.34314575,35 7,35 L11,35 C13.7600532,35.0033061 15.9966939,37.2399468 16,40 C16,41.6568542 14.6568542,43 13,43 Z M7,37 C6.44771525,37 6,37.4477153 6,38 L6,40 C6,40.5522847 6.44771525,41 7,41 L13,41 C13.5522847,41 14,40.5522847 14,40 C14,38.3431458 12.6568542,37 11,37 L7,37 Z" id="Shape" fill="#428DFF"/><path d="M47,43 L41,43 C39.3431458,43 38,41.6568542 38,40 C38.0033061,37.2399468 40.2399468,35.0033061 43,35 L47,35 C48.6568542,35 50,36.3431458 50,38 L50,40 C50,41.6568542 48.6568542,43 47,43 Z M43,37 C41.3431458,37 40,38.3431458 40,40 C40,40.5522847 40.4477153,41 41,41 L47,41 C47.5522847,41 48,40.5522847 48,40 L48,38 C48,37.4477153 47.5522847,37 47,37 L43,37 Z" id="Shape" fill="#428DFF"/><path d="M10,53 L6,53 C5.44771525,53 5,52.5522847 5,52 L5,49 C5,47.8954305 5.8954305,47 7,47 L9,47 C10.1045695,47 11,47.8954305 11,49 L11,52 C11,52.5522847 10.5522847,53 10,53 Z M7,51 L9,51 L9,49 L7,49 L7,51 Z" id="Shape" fill="#428DFF"/><path d="M48,53 L44,53 C43.4477153,53 43,52.5522847 43,52 L43,49 C43,47.8954305 43.8954305,47 45,47 L47,47 C48.1045695,47 49,47.8954305 49,49 L49,52 C49,52.5522847 48.5522847,53 48,53 Z M45,51 L47,51 L47,49 L45,49 L45,51 Z" id="Shape" fill="#428DFF"/><path d="M34,49 L20,49 C18.8954305,49 18,48.1045695 18,47 L18,43 C18,41.8954305 18.8954305,41 20,41 L34,41 C35.1045695,41 36,41.8954305 36,43 L36,47 C36,48.1045695 35.1045695,49 34,49 Z M20,43 L20,47 L34,47 L34,43 L20,43 Z" id="Shape" fill="#428DFF"/></g></g></svg>
